# xmcd
#
# Track frame offsets:
#	150
#	21503
#	48898
#	71084
#	87306
#	104053
#	128228
#	163126
#	195375
#	221214
#	253871
#
# Disc length: 3434 seconds
#
# Revision: 0
# Processed by: cddbd v1.5.2PL0 Copyright (c) Steve Scherf et al.
# Submitted via: audiograbber 1.83.01
#
DISCID=a80d680b
DTITLE=Robert Bradley's Blackwater Surprise - Disc One - What About That- New Y
DTITLE=ears Eve in Bloomington
DYEAR=2006
DGENRE=Blues
TTITLE0=Time to Discover
TTITLE1=Comin' Down
TTITLE2=Baby
TTITLE3=Games People Play
TTITLE4=You and Me
TTITLE5=Shake It Off
TTITLE6=Something Inside Me
TTITLE7=Bellybone
TTITLE8=Gambler
TTITLE9=California
TTITLE10=Countdown to Midnight
EXTD=
EXTT0=
EXTT1=
EXTT2=
EXTT3=
EXTT4=
EXTT5=
EXTT6=
EXTT7=
EXTT8=
EXTT9=
EXTT10=
PLAYORDER=
